<svg width="103" height="105" viewBox="0 0 103 105" fill="none" xmlns="http://www.w3.org/2000/svg">
<path fill-rule="evenodd" clip-rule="evenodd" d="M72.8249 69.1756L53.8475 46.088C50.7529 42.3231 51.4074 36.6528 55.3066 33.4478C59.2058 30.2428 64.8954 30.6982 67.99 34.463L81.9337 51.4267C82.8924 52.593 84.6485 52.7335 85.8564 51.7407C87.0643 50.7478 87.2664 48.9977 86.3077 47.8314L72.3641 30.8678C67.3554 24.7743 58.1461 24.0371 51.835 29.2246C45.524 34.4122 44.4645 43.5899 49.4733 49.6835L68.4506 72.771C71.3537 76.3029 70.7396 81.6226 67.0816 84.6294C63.4236 87.6361 58.0856 87.2089 55.1825 83.677L26.7744 49.1161C25.8158 47.9499 24.0596 47.8093 22.8517 48.8022C21.6438 49.795 21.4418 51.5452 22.4004 52.7114L50.8085 87.2723C55.6258 93.133 64.4832 93.842 70.5532 88.8527C76.6232 83.8633 77.6421 75.0361 72.8249 69.1756Z" fill="#FFCD00"/>
<path fill-rule="evenodd" clip-rule="evenodd" d="M27.8353 35.8042L21.8181 28.4837C20.8595 27.3174 19.1033 27.1769 17.8954 28.1697L2.73189 40.6337C1.52399 41.6266 1.32195 43.3767 2.2806 44.543L8.29784 51.8635C12.5728 57.0643 20.4331 57.6935 25.8195 53.2659C31.206 48.8384 32.1103 41.005 27.8353 35.8042ZM19.18 34.1908L21.8708 37.4643L11.0814 46.3329L8.39065 43.0594L19.18 34.1908Z" fill="#CD2A00"/>
<path fill-rule="evenodd" clip-rule="evenodd" d="M97.0501 55.2709L91.033 47.9505C86.758 42.7497 78.8978 42.1205 73.5113 46.5481C68.1248 50.9756 67.2204 58.8089 71.4955 64.0098L77.5126 71.3302C78.4713 72.4965 80.2274 72.637 81.4353 71.6442L96.5987 59.1803C97.8066 58.1874 98.0088 56.4372 97.0501 55.2709ZM80.1489 65.6229L77.4581 62.3494L88.2475 53.4808L90.9383 56.7543L80.1489 65.6229Z" fill="#AA2300"/>
</svg>
