<svg width="17" height="30" viewBox="0 0 17 30" fill="none" xmlns="http://www.w3.org/2000/svg">
<path fill-rule="evenodd" clip-rule="evenodd" d="M10.6453 0H3.96254C3.43525 0 3.00781 0.4275 3.00781 0.954727V29.0452C3.00781 29.5725 3.43531 29.9999 3.96254 29.9999H10.6453C11.1726 29.9999 11.6001 29.5724 11.6001 29.0452V0.954727C11.6001 0.4275 11.1726 0 10.6453 0Z" fill="#005ECE"/>
<path fill-rule="evenodd" clip-rule="evenodd" d="M10.6451 0H7.30371V30H10.6451C11.1724 30 11.5998 29.5725 11.5998 29.0453V0.954727C11.5998 0.4275 11.1723 0 10.6451 0Z" fill="#004FAC"/>
<path fill-rule="evenodd" clip-rule="evenodd" d="M13.6521 8.4126H0.954727C0.427441 8.4126 0 8.8401 0 9.36732V20.6326C0 21.1599 0.4275 21.5873 0.954727 21.5873H13.6522C14.1795 21.5873 14.6069 21.1598 14.6069 20.6326V9.36732C14.6068 8.84004 14.1795 8.4126 13.6521 8.4126Z" fill="#787680"/>
<path fill-rule="evenodd" clip-rule="evenodd" d="M13.6523 8.4126H7.30371V21.5875H13.6524C14.1797 21.5875 14.6071 21.16 14.6071 20.6327V9.36732C14.6071 8.84004 14.1797 8.4126 13.6523 8.4126Z" fill="#57565C"/>
<path fill-rule="evenodd" clip-rule="evenodd" d="M7.30299 10.2263C4.67078 10.2263 2.5293 12.3677 2.5293 15C2.5293 17.6323 4.67072 19.7737 7.30299 19.7737C9.93525 19.7737 12.0767 17.6323 12.0767 15C12.0767 12.3677 9.9352 10.2263 7.30299 10.2263Z" fill="white"/>
<path fill-rule="evenodd" clip-rule="evenodd" d="M7.30371 10.2263V19.7737C9.93592 19.7737 12.0774 17.6323 12.0774 15C12.0774 12.3677 9.93592 10.2263 7.30371 10.2263Z" fill="#E0E0E2"/>
<path fill-rule="evenodd" clip-rule="evenodd" d="M8.35398 13.0312C7.92748 13.0312 7.5485 13.2318 7.30381 13.5428C7.05912 13.2317 6.68014 13.0312 6.25363 13.0312C5.51541 13.0312 4.91699 13.6297 4.91699 14.3679C4.91699 16.0387 7.30387 17.2934 7.30387 17.2934C7.30387 17.2934 9.69074 16.0069 9.69074 14.3679C9.69057 13.6297 9.09221 13.0312 8.35398 13.0312Z" fill="#CD2A00"/>
<path fill-rule="evenodd" clip-rule="evenodd" d="M15.5299 17.8883C15.0026 17.8883 14.5752 17.4608 14.5752 16.9336V15.0665C14.5752 14.5393 15.0027 14.1118 15.5299 14.1118C16.0571 14.1118 16.4846 14.5393 16.4846 15.0665V16.9336C16.4846 17.4608 16.0573 17.8883 15.5299 17.8883Z" fill="#E0E0E2"/>
<path fill-rule="evenodd" clip-rule="evenodd" d="M8.35389 13.0312C7.92738 13.0312 7.5484 13.2318 7.30371 13.5428V17.2934C7.30377 17.2933 9.69059 16.0068 9.69059 14.3678C9.69047 13.6297 9.09211 13.0312 8.35389 13.0312Z" fill="#AA2300"/>
<path fill-rule="evenodd" clip-rule="evenodd" d="M15.5303 14.1118V17.8883C16.0576 17.8883 16.485 17.4608 16.485 16.9336V15.0665C16.485 14.5392 16.0576 14.1118 15.5303 14.1118Z" fill="#ACABB1"/>
<path fill-rule="evenodd" clip-rule="evenodd" d="M7.30299 10.8274C9.83424 10.8274 11.9106 12.8079 12.0663 15.3005C12.0725 15.201 12.0767 15.101 12.0767 15C12.0767 12.3678 9.93525 10.2263 7.30299 10.2263C4.67072 10.2263 2.5293 12.3678 2.5293 15C2.5293 15.101 2.53352 15.201 2.53973 15.3005C2.69541 12.8079 4.77174 10.8274 7.30299 10.8274Z" fill="#C5C4C9"/>
<rect x="3.00781" y="21.5876" width="8.5926" height="1.17598" fill="#004FAC"/>
<path fill-rule="evenodd" clip-rule="evenodd" d="M6.44434 6.85941C6.44434 7.33379 6.82889 7.71828 7.3032 7.71828V6.00049C6.82895 6.00049 6.44434 6.3851 6.44434 6.85941Z" fill="#004FAC"/>
<path fill-rule="evenodd" clip-rule="evenodd" d="M6.44446 5.68296C6.44446 6.15734 6.82901 6.54183 7.30333 6.54183V4.8241C6.82907 4.8241 6.44446 5.20859 6.44446 5.68296Z" fill="#004FAC"/>
<path fill-rule="evenodd" clip-rule="evenodd" d="M8.16258 6.85936C8.16258 6.38498 7.77803 6.00049 7.30371 6.00049V7.71828C7.77803 7.71822 8.16258 7.33373 8.16258 6.85936Z" fill="black"/>
<path fill-rule="evenodd" clip-rule="evenodd" d="M8.16258 6.85936C8.16258 6.38498 7.77803 6.00049 7.30371 6.00049V7.71828C7.77803 7.71822 8.16258 7.33373 8.16258 6.85936Z" fill="#005ECE"/>
<path fill-rule="evenodd" clip-rule="evenodd" d="M8.16301 5.68296C8.16301 5.20859 7.77845 4.8241 7.30414 4.8241V6.54189C7.77845 6.54189 8.16301 6.15734 8.16301 5.68296Z" fill="black"/>
<path fill-rule="evenodd" clip-rule="evenodd" d="M8.16301 5.68296C8.16301 5.20859 7.77845 4.8241 7.30414 4.8241V6.54189C7.77845 6.54189 8.16301 6.15734 8.16301 5.68296Z" fill="#005ECE"/>
</svg>
