<svg width="50" height="15" viewBox="0 0 50 15" fill="none" xmlns="http://www.w3.org/2000/svg">
<path fill-rule="evenodd" clip-rule="evenodd" d="M29.4971 13.1028C29.1939 13.1028 28.8905 13.0173 28.6241 12.8454L24.6532 10.2821L20.6822 12.8454C20.1264 13.2042 19.4079 13.1863 18.8708 12.8009L13.2125 8.74075H1.60969C0.720726 8.74075 0 8.02002 0 7.13105C0 6.24209 0.720726 5.52136 1.60969 5.52136H13.7304C14.0672 5.52136 14.3953 5.62691 14.6689 5.82327L19.8574 9.54631L23.7806 7.01376C24.3122 6.67083 24.9953 6.67073 25.5266 7.01376L29.4497 9.54631L34.6383 5.82327C34.9118 5.62701 35.24 5.52136 35.5767 5.52136H47.6974C48.5864 5.52136 49.3071 6.24209 49.3071 7.13105C49.3071 8.02002 48.5864 8.74075 47.6974 8.74075H36.0941L30.4357 12.8009C30.1558 13.0016 29.8268 13.1028 29.4971 13.1028Z" fill="#C6C5CA"/>
<path fill-rule="evenodd" clip-rule="evenodd" d="M47.6971 5.52124H35.5764C35.2396 5.52124 34.9115 5.62679 34.6379 5.82315L29.4494 9.54619L25.5263 7.01364C25.2606 6.84203 24.9569 6.75632 24.6533 6.75632V10.2818L28.6242 12.8451C28.8905 13.017 29.1941 13.1024 29.4972 13.1024C29.8268 13.1024 30.1559 13.0014 30.4358 12.8005L36.0941 8.74033H47.6971C48.5861 8.74033 49.3068 8.01961 49.3068 7.13064C49.3068 6.24168 48.5861 5.52124 47.6971 5.52124Z" fill="#ACABB1"/>
<path fill-rule="evenodd" clip-rule="evenodd" d="M8.36936 0H4.13081C3.24184 0 2.52112 0.720726 2.52112 1.60969V12.6523C2.52112 13.5412 3.24184 14.262 4.13081 14.262H8.36936C9.25833 14.262 9.97905 13.5412 9.97905 12.6523V1.60969C9.97896 0.720726 9.25833 0 8.36936 0Z" fill="#787680"/>
<path fill-rule="evenodd" clip-rule="evenodd" d="M45.176 0H40.9375C40.0485 0 39.3278 0.720726 39.3278 1.60969V12.6523C39.3278 13.5412 40.0485 14.262 40.9375 14.262H45.176C46.065 14.262 46.7857 13.5412 46.7857 12.6523V1.60969C46.7857 0.720726 46.065 0 45.176 0Z" fill="#57565C"/>
</svg>
